<svg xmlns="http://www.w3.org/2000/svg" xmlns:xlink="http://www.w3.org/1999/xlink" width="500" zoomAndPan="magnify" viewBox="0 0 375 374.999991" height="500" preserveAspectRatio="xMidYMid meet" version="1.0"><defs><g/><clipPath id="a82e98ee50"><rect x="0" width="257" y="0" height="83"/></clipPath><clipPath id="887598cb70"><path d="M 29.046875 150.992188 L 82.296875 150.992188 L 82.296875 223.742188 L 29.046875 223.742188 Z M 29.046875 150.992188 " clip-rule="nonzero"/></clipPath></defs><g transform="matrix(1, 0, 0, 1, 90, 146)"><g clip-path="url(#a82e98ee50)"><g fill="#ffffff" fill-opacity="1"><g transform="translate(0.720497, 66.199899)"><g><path d="M 15.8125 0 L 9.015625 0 L 9.015625 -27.984375 L 1.84375 -27.984375 L 1.84375 -34.578125 L 9.015625 -34.578125 L 9.015625 -43.40625 L 15.8125 -43.40625 L 15.8125 -34.578125 L 23.84375 -34.578125 L 23.84375 -27.984375 L 15.8125 -27.984375 Z M 15.8125 0 "/></g></g></g><g fill="#ffffff" fill-opacity="1"><g transform="translate(25.683853, 66.199899)"><g><path d="M 36.953125 -34.578125 L 36.953125 0 L 30.09375 0 L 30.09375 -5.328125 C 29.039062 -3.878906 27.484375 -2.519531 25.421875 -1.25 C 23.359375 0.0195312 20.96875 0.65625 18.25 0.65625 C 15.34375 0.65625 12.691406 -0.109375 10.296875 -1.640625 C 7.910156 -3.179688 6.015625 -5.3125 4.609375 -8.03125 C 3.203125 -10.757812 2.5 -13.878906 2.5 -17.390625 C 2.5 -20.898438 3.222656 -24.003906 4.671875 -26.703125 C 6.117188 -29.398438 8.113281 -31.503906 10.65625 -33.015625 C 13.207031 -34.535156 16.109375 -35.296875 19.359375 -35.296875 C 21.773438 -35.296875 23.894531 -34.769531 25.71875 -33.71875 C 27.539062 -32.664062 29 -31.4375 30.09375 -30.03125 L 30.09375 -34.578125 Z M 19.828125 -5.59375 C 21.929688 -5.59375 23.773438 -6.109375 25.359375 -7.140625 C 26.941406 -8.171875 28.171875 -9.578125 29.046875 -11.359375 C 29.921875 -13.140625 30.359375 -15.148438 30.359375 -17.390625 C 30.359375 -19.585938 29.921875 -21.5625 29.046875 -23.3125 C 28.171875 -25.070312 26.941406 -26.46875 25.359375 -27.5 C 23.773438 -28.53125 21.929688 -29.046875 19.828125 -29.046875 C 17.804688 -29.046875 16.003906 -28.539062 14.421875 -27.53125 C 12.835938 -26.519531 11.609375 -25.132812 10.734375 -23.375 C 9.859375 -21.625 9.421875 -19.628906 9.421875 -17.390625 C 9.421875 -15.148438 9.859375 -13.140625 10.734375 -11.359375 C 11.609375 -9.578125 12.835938 -8.171875 14.421875 -7.140625 C 16.003906 -6.109375 17.804688 -5.59375 19.828125 -5.59375 Z M 19.828125 -5.59375 "/></g></g></g><g fill="#ffffff" fill-opacity="1"><g transform="translate(67.377262, 66.199899)"><g><path d="M 9.296875 -42.078125 C 7.753906 -42.078125 6.609375 -42.472656 5.859375 -43.265625 C 5.117188 -44.054688 4.75 -45.085938 4.75 -46.359375 C 4.75 -47.460938 5.117188 -48.453125 5.859375 -49.328125 C 6.609375 -50.203125 7.753906 -50.640625 9.296875 -50.640625 C 10.828125 -50.640625 11.96875 -50.242188 12.71875 -49.453125 C 13.46875 -48.671875 13.84375 -47.640625 13.84375 -46.359375 C 13.84375 -45.265625 13.46875 -44.273438 12.71875 -43.390625 C 11.96875 -42.515625 10.828125 -42.078125 9.296875 -42.078125 Z M 12.78125 0 L 5.984375 0 L 5.984375 -34.578125 L 12.78125 -34.578125 Z M 12.78125 0 "/></g></g></g><g fill="#ffffff" fill-opacity="1"><g transform="translate(85.688108, 66.199899)"><g><path d="M 4.734375 0 L 4.734375 -48.734375 L 11.53125 -48.734375 L 11.53125 0 Z M 4.734375 0 "/></g></g></g><g fill="#ffffff" fill-opacity="1"><g transform="translate(102.154702, 66.199899)"><g><path d="M 8.171875 -13.890625 C 9.960938 -11.304688 11.835938 -9.300781 13.796875 -7.875 C 15.753906 -6.445312 18.289062 -5.734375 21.40625 -5.734375 C 22.894531 -5.734375 24.320312 -5.972656 25.6875 -6.453125 C 27.050781 -6.929688 28.171875 -7.628906 29.046875 -8.546875 C 29.921875 -9.472656 30.359375 -10.578125 30.359375 -11.859375 C 30.359375 -14.046875 29.425781 -15.753906 27.5625 -16.984375 C 25.695312 -18.210938 23.070312 -19.160156 19.6875 -19.828125 C 15.382812 -20.703125 11.957031 -22.222656 9.40625 -24.390625 C 6.863281 -26.566406 5.59375 -29.722656 5.59375 -33.859375 C 5.59375 -36.484375 6.328125 -38.757812 7.796875 -40.6875 C 9.273438 -42.625 11.21875 -44.117188 13.625 -45.171875 C 16.039062 -46.234375 18.65625 -46.765625 21.46875 -46.765625 C 25.113281 -46.765625 28.253906 -46.0625 30.890625 -44.65625 C 33.523438 -43.25 35.585938 -41.25 37.078125 -38.65625 L 32.078125 -33.71875 C 30.890625 -35.695312 29.394531 -37.300781 27.59375 -38.53125 C 25.789062 -39.757812 23.679688 -40.375 21.265625 -40.375 C 18.859375 -40.375 16.828125 -39.8125 15.171875 -38.6875 C 13.523438 -37.570312 12.703125 -36.023438 12.703125 -34.046875 C 12.703125 -31.804688 13.566406 -30.171875 15.296875 -29.140625 C 17.035156 -28.109375 19.332031 -27.285156 22.1875 -26.671875 C 24.78125 -26.140625 27.238281 -25.328125 29.5625 -24.234375 C 31.894531 -23.140625 33.796875 -21.722656 35.265625 -19.984375 C 36.734375 -18.253906 37.46875 -16.160156 37.46875 -13.703125 C 37.46875 -9.304688 35.972656 -5.8125 32.984375 -3.21875 C 30.003906 -0.632812 25.90625 0.65625 20.6875 0.65625 C 17.125 0.65625 13.878906 -0.046875 10.953125 -1.453125 C 8.035156 -2.859375 5.484375 -5.140625 3.296875 -8.296875 Z M 8.171875 -13.890625 "/></g></g></g><g fill="#ffffff" fill-opacity="1"><g transform="translate(143.255311, 66.199899)"><g><path d="M 10.53125 15.140625 L 16.203125 2.171875 L 16.40625 1.71875 L 0.328125 -34.578125 L 8.234375 -34.578125 L 19.03125 -9.15625 C 19.164062 -8.894531 19.296875 -8.566406 19.421875 -8.171875 C 19.554688 -7.773438 19.710938 -7.332031 19.890625 -6.84375 C 20.066406 -7.332031 20.226562 -7.804688 20.375 -8.265625 C 20.53125 -8.722656 20.695312 -9.171875 20.875 -9.609375 L 29.90625 -34.578125 L 37.9375 -34.578125 L 23.703125 0 L 17.84375 15.140625 Z M 10.53125 15.140625 "/></g></g></g><g fill="#ffffff" fill-opacity="1"><g transform="translate(181.523663, 66.199899)"><g><path d="M 22.859375 -35.296875 C 25.972656 -35.296875 28.382812 -34.660156 30.09375 -33.390625 C 31.8125 -32.117188 33.007812 -30.40625 33.6875 -28.25 C 34.363281 -26.101562 34.703125 -23.710938 34.703125 -21.078125 L 34.703125 0 L 27.921875 0 L 27.921875 -20.609375 C 27.921875 -22.273438 27.703125 -23.765625 27.265625 -25.078125 C 26.828125 -26.398438 26.082031 -27.4375 25.03125 -28.1875 C 23.976562 -28.9375 22.503906 -29.242188 20.609375 -29.109375 C 18.859375 -29.109375 17.300781 -28.734375 15.9375 -27.984375 C 14.570312 -27.242188 13.492188 -26.257812 12.703125 -25.03125 C 11.921875 -23.800781 11.53125 -22.4375 11.53125 -20.9375 L 11.53125 0 L 4.734375 0 L 4.734375 -34.578125 L 11.53125 -34.578125 L 11.53125 -29.109375 C 12.582031 -30.734375 14.117188 -32.171875 16.140625 -33.421875 C 18.160156 -34.671875 20.398438 -35.296875 22.859375 -35.296875 Z M 22.859375 -35.296875 "/></g></g></g><g fill="#ffffff" fill-opacity="1"><g transform="translate(220.714166, 66.199899)"><g><path d="M 9.09375 -17.328125 C 9.09375 -15.035156 9.609375 -13 10.640625 -11.21875 C 11.671875 -9.445312 13.03125 -8.046875 14.71875 -7.015625 C 16.40625 -5.984375 18.21875 -5.46875 20.15625 -5.46875 C 22.351562 -5.46875 24.257812 -6.035156 25.875 -7.171875 C 27.5 -8.316406 28.816406 -9.503906 29.828125 -10.734375 L 33.59375 -6.125 C 32.757812 -4.9375 31.613281 -3.828125 30.15625 -2.796875 C 28.707031 -1.765625 27.0625 -0.929688 25.21875 -0.296875 C 23.375 0.335938 21.441406 0.65625 19.421875 0.65625 C 16.265625 0.65625 13.410156 -0.128906 10.859375 -1.703125 C 8.316406 -3.285156 6.3125 -5.4375 4.84375 -8.15625 C 3.375 -10.882812 2.640625 -13.941406 2.640625 -17.328125 C 2.640625 -20.742188 3.375 -23.800781 4.84375 -26.5 C 6.3125 -29.207031 8.316406 -31.347656 10.859375 -32.921875 C 13.410156 -34.503906 16.265625 -35.296875 19.421875 -35.296875 C 22.628906 -35.296875 25.484375 -34.648438 27.984375 -33.359375 C 30.492188 -32.066406 32.363281 -30.382812 33.59375 -28.3125 L 29.828125 -23.703125 C 28.816406 -25.203125 27.378906 -26.488281 25.515625 -27.5625 C 23.648438 -28.632812 21.84375 -29.171875 20.09375 -29.171875 C 18.019531 -29.171875 16.148438 -28.65625 14.484375 -27.625 C 12.816406 -26.59375 11.5 -25.1875 10.53125 -23.40625 C 9.570312 -21.632812 9.09375 -19.609375 9.09375 -17.328125 Z M 9.09375 -17.328125 "/></g></g></g></g></g><g clip-path="url(#887598cb70)"><path fill="#ffffff" d="M 55.597656 160.949219 L 55.597656 150.992188 L 42.320312 164.265625 L 55.597656 177.542969 L 55.597656 167.585938 C 66.597656 167.585938 75.507812 176.496094 75.507812 187.496094 C 75.507812 190.867188 74.660156 194.019531 73.199219 196.804688 L 78.046875 201.652344 C 80.617188 197.535156 82.144531 192.707031 82.144531 187.496094 C 82.144531 172.828125 70.265625 160.949219 55.597656 160.949219 Z M 55.597656 207.410156 C 44.59375 207.410156 35.683594 198.496094 35.683594 187.496094 C 35.683594 184.128906 36.53125 180.976562 37.992188 178.1875 L 33.144531 173.34375 C 30.574219 177.457031 29.046875 182.285156 29.046875 187.496094 C 29.046875 202.164062 40.929688 214.046875 55.597656 214.046875 L 55.597656 224 L 68.871094 210.726562 L 55.597656 197.453125 Z M 55.597656 207.410156 " fill-opacity="1" fill-rule="nonzero"/></g></svg>