<svg xmlns="http://www.w3.org/2000/svg" xmlns:xlink="http://www.w3.org/1999/xlink" width="192" zoomAndPan="magnify" viewBox="0 0 144 143.999998" height="192" preserveAspectRatio="xMidYMid meet" version="1.0"><defs><g/><clipPath id="a098147c60"><path d="M 22.5 22.5 L 121.5 22.5 L 121.5 121.5 L 22.5 121.5 Z M 22.5 22.5 " clip-rule="nonzero"/></clipPath><clipPath id="69f3ee8e03"><path d="M 72 22.5 C 44.660156 22.5 22.5 44.660156 22.5 72 C 22.5 99.339844 44.660156 121.5 72 121.5 C 99.339844 121.5 121.5 99.339844 121.5 72 C 121.5 44.660156 99.339844 22.5 72 22.5 Z M 72 22.5 " clip-rule="nonzero"/></clipPath><clipPath id="553f457b38"><path d="M 0.5 0.5 L 99.5 0.5 L 99.5 99.5 L 0.5 99.5 Z M 0.5 0.5 " clip-rule="nonzero"/></clipPath><clipPath id="d1dc2c7c34"><path d="M 50 0.5 C 22.660156 0.5 0.5 22.660156 0.5 50 C 0.5 77.339844 22.660156 99.5 50 99.5 C 77.339844 99.5 99.5 77.339844 99.5 50 C 99.5 22.660156 77.339844 0.5 50 0.5 Z M 50 0.5 " clip-rule="nonzero"/></clipPath><clipPath id="e89f758f4d"><rect x="0" width="100" y="0" height="100"/></clipPath><clipPath id="051c08ac08"><path d="M 22.5 3.933594 L 121.5 3.933594 L 121.5 140.433594 L 22.5 140.433594 Z M 22.5 3.933594 " clip-rule="nonzero"/></clipPath><clipPath id="629f408424"><rect x="0" width="32" y="0" height="40"/></clipPath></defs><g clip-path="url(#a098147c60)"><g clip-path="url(#69f3ee8e03)"><g transform="matrix(1, 0, 0, 1, 22, 22)"><g clip-path="url(#e89f758f4d)"><g clip-path="url(#553f457b38)"><g clip-path="url(#d1dc2c7c34)"><path fill="#2e077c" d="M 0.5 0.5 L 99.5 0.5 L 99.5 99.5 L 0.5 99.5 Z M 0.5 0.5 " fill-opacity="1" fill-rule="nonzero"/></g></g></g></g></g></g><g clip-path="url(#051c08ac08)"><path fill="#ffffff" d="M 72 22.496094 L 72 3.933594 L 47.25 28.683594 L 72 53.433594 L 72 34.871094 C 92.507812 34.871094 109.125 51.484375 109.125 71.996094 C 109.125 78.277344 107.546875 84.15625 104.824219 89.351562 L 113.855469 98.386719 C 118.652344 90.714844 121.5 81.710938 121.5 71.996094 C 121.5 44.648438 99.347656 22.496094 72 22.496094 Z M 72 109.121094 C 51.488281 109.121094 34.875 92.507812 34.875 71.996094 C 34.875 65.71875 36.449219 59.839844 39.171875 54.640625 L 30.140625 45.609375 C 25.34375 53.28125 22.5 62.28125 22.5 71.996094 C 22.5 99.347656 44.648438 121.496094 72 121.496094 L 72 140.058594 L 96.75 115.308594 L 72 90.558594 Z M 72 109.121094 " fill-opacity="1" fill-rule="nonzero"/></g><g transform="matrix(1, 0, 0, 1, 56, 52)"><g clip-path="url(#629f408424)"><g fill="#ffffff" fill-opacity="1"><g transform="translate(0.516398, 31.376)"><g><path d="M 7.375 0 L 4.203125 0 L 4.203125 -13.0625 L 0.859375 -13.0625 L 0.859375 -16.125 L 4.203125 -16.125 L 4.203125 -20.25 L 7.375 -20.25 L 7.375 -16.125 L 11.125 -16.125 L 11.125 -13.0625 L 7.375 -13.0625 Z M 7.375 0 "/></g></g></g><g fill="#ffffff" fill-opacity="1"><g transform="translate(12.311733, 31.376)"><g><path d="M 3.8125 -6.484375 C 4.644531 -5.273438 5.515625 -4.335938 6.421875 -3.671875 C 7.335938 -3.003906 8.523438 -2.671875 9.984375 -2.671875 C 10.679688 -2.671875 11.347656 -2.78125 11.984375 -3 C 12.617188 -3.226562 13.140625 -3.554688 13.546875 -3.984375 C 13.953125 -4.421875 14.15625 -4.9375 14.15625 -5.53125 C 14.15625 -6.550781 13.71875 -7.347656 12.84375 -7.921875 C 11.976562 -8.492188 10.757812 -8.9375 9.1875 -9.25 C 7.175781 -9.65625 5.578125 -10.363281 4.390625 -11.375 C 3.203125 -12.394531 2.609375 -13.867188 2.609375 -15.796875 C 2.609375 -17.015625 2.953125 -18.070312 3.640625 -18.96875 C 4.328125 -19.875 5.234375 -20.570312 6.359375 -21.0625 C 7.484375 -21.5625 8.703125 -21.8125 10.015625 -21.8125 C 11.710938 -21.8125 13.175781 -21.484375 14.40625 -20.828125 C 15.632812 -20.171875 16.597656 -19.238281 17.296875 -18.03125 L 14.953125 -15.734375 C 14.398438 -16.648438 13.703125 -17.394531 12.859375 -17.96875 C 12.023438 -18.539062 11.046875 -18.828125 9.921875 -18.828125 C 8.796875 -18.828125 7.847656 -18.566406 7.078125 -18.046875 C 6.304688 -17.523438 5.921875 -16.800781 5.921875 -15.875 C 5.921875 -14.832031 6.328125 -14.070312 7.140625 -13.59375 C 7.953125 -13.113281 9.023438 -12.726562 10.359375 -12.4375 C 11.566406 -12.195312 12.710938 -11.816406 13.796875 -11.296875 C 14.878906 -10.785156 15.765625 -10.125 16.453125 -9.3125 C 17.140625 -8.507812 17.484375 -7.535156 17.484375 -6.390625 C 17.484375 -4.335938 16.785156 -2.707031 15.390625 -1.5 C 13.992188 -0.289062 12.078125 0.3125 9.640625 0.3125 C 7.984375 0.3125 6.472656 -0.015625 5.109375 -0.671875 C 3.753906 -1.328125 2.5625 -2.394531 1.53125 -3.875 Z M 3.8125 -6.484375 "/></g></g></g></g></g></svg>