<svg xmlns="http://www.w3.org/2000/svg" xmlns:xlink="http://www.w3.org/1999/xlink" width="500" zoomAndPan="magnify" viewBox="0 0 375 374.999991" height="500" preserveAspectRatio="xMidYMid meet" version="1.0"><defs><g/><clipPath id="3399ce6c67"><path d="M 87.917969 165.917969 L 120.167969 165.917969 L 120.167969 210.917969 L 87.917969 210.917969 Z M 87.917969 165.917969 " clip-rule="nonzero"/></clipPath><clipPath id="cf069886be"><rect x="0" width="154" y="0" height="51"/></clipPath></defs><g clip-path="url(#3399ce6c67)"><path fill="#ffffff" d="M 104.167969 172.011719 L 104.167969 165.917969 L 96.042969 174.042969 L 104.167969 182.167969 L 104.167969 176.074219 C 110.898438 176.074219 116.351562 181.527344 116.351562 188.261719 C 116.351562 190.320312 115.835938 192.25 114.941406 193.957031 L 117.90625 196.921875 C 119.480469 194.40625 120.414062 191.449219 120.414062 188.261719 C 120.414062 179.285156 113.144531 172.011719 104.167969 172.011719 Z M 104.167969 200.445312 C 97.433594 200.445312 91.980469 194.992188 91.980469 188.261719 C 91.980469 186.199219 92.5 184.269531 93.394531 182.5625 L 90.425781 179.597656 C 88.851562 182.117188 87.917969 185.070312 87.917969 188.261719 C 87.917969 197.238281 95.191406 204.507812 104.167969 204.507812 L 104.167969 210.601562 L 112.292969 202.476562 L 104.167969 194.355469 Z M 104.167969 200.445312 " fill-opacity="1" fill-rule="nonzero"/></g><g transform="matrix(1, 0, 0, 1, 127, 162)"><g clip-path="url(#cf069886be)"><g fill="#ffffff" fill-opacity="1"><g transform="translate(0.597643, 40.234107)"><g><path d="M 9.375 0 L 5.34375 0 L 5.34375 -16.59375 L 1.09375 -16.59375 L 1.09375 -20.5 L 5.34375 -20.5 L 5.34375 -25.734375 L 9.375 -25.734375 L 9.375 -20.5 L 14.140625 -20.5 L 14.140625 -16.59375 L 9.375 -16.59375 Z M 9.375 0 "/></g></g></g><g fill="#ffffff" fill-opacity="1"><g transform="translate(15.587153, 40.234107)"><g><path d="M 21.90625 -20.5 L 21.90625 0 L 17.84375 0 L 17.84375 -3.15625 C 17.21875 -2.300781 16.289062 -1.492188 15.0625 -0.734375 C 13.84375 0.015625 12.425781 0.390625 10.8125 0.390625 C 9.09375 0.390625 7.523438 -0.0625 6.109375 -0.96875 C 4.691406 -1.882812 3.566406 -3.148438 2.734375 -4.765625 C 1.898438 -6.378906 1.484375 -8.226562 1.484375 -10.3125 C 1.484375 -12.394531 1.910156 -14.234375 2.765625 -15.828125 C 3.628906 -17.429688 4.816406 -18.679688 6.328125 -19.578125 C 7.835938 -20.472656 9.554688 -20.921875 11.484375 -20.921875 C 12.910156 -20.921875 14.164062 -20.609375 15.25 -19.984375 C 16.332031 -19.367188 17.195312 -18.644531 17.84375 -17.8125 L 17.84375 -20.5 Z M 11.75 -3.3125 C 13 -3.3125 14.09375 -3.617188 15.03125 -4.234375 C 15.96875 -4.847656 16.695312 -5.679688 17.21875 -6.734375 C 17.738281 -7.785156 18 -8.976562 18 -10.3125 C 18 -11.613281 17.738281 -12.785156 17.21875 -13.828125 C 16.695312 -14.867188 15.96875 -15.691406 15.03125 -16.296875 C 14.09375 -16.910156 13 -17.21875 11.75 -17.21875 C 10.550781 -17.21875 9.484375 -16.914062 8.546875 -16.3125 C 7.609375 -15.71875 6.878906 -14.898438 6.359375 -13.859375 C 5.835938 -12.816406 5.578125 -11.632812 5.578125 -10.3125 C 5.578125 -8.976562 5.835938 -7.785156 6.359375 -6.734375 C 6.878906 -5.679688 7.609375 -4.847656 8.546875 -4.234375 C 9.484375 -3.617188 10.550781 -3.3125 11.75 -3.3125 Z M 11.75 -3.3125 "/></g></g></g><g fill="#ffffff" fill-opacity="1"><g transform="translate(40.29642, 40.234107)"><g><path d="M 5.5 -24.953125 C 4.582031 -24.953125 3.898438 -25.1875 3.453125 -25.65625 C 3.015625 -26.125 2.796875 -26.734375 2.796875 -27.484375 C 2.796875 -28.140625 3.015625 -28.726562 3.453125 -29.25 C 3.898438 -29.769531 4.582031 -30.03125 5.5 -30.03125 C 6.40625 -30.03125 7.078125 -29.796875 7.515625 -29.328125 C 7.960938 -28.859375 8.1875 -28.242188 8.1875 -27.484375 C 8.1875 -26.835938 7.960938 -26.253906 7.515625 -25.734375 C 7.078125 -25.210938 6.40625 -24.953125 5.5 -24.953125 Z M 7.5625 0 L 3.546875 0 L 3.546875 -20.5 L 7.5625 -20.5 Z M 7.5625 0 "/></g></g></g><g fill="#ffffff" fill-opacity="1"><g transform="translate(51.148206, 40.234107)"><g><path d="M 2.8125 0 L 2.8125 -28.890625 L 6.828125 -28.890625 L 6.828125 0 Z M 2.8125 0 "/></g></g></g><g fill="#ffffff" fill-opacity="1"><g transform="translate(60.907008, 40.234107)"><g><path d="M 4.84375 -8.234375 C 5.90625 -6.703125 7.015625 -5.507812 8.171875 -4.65625 C 9.335938 -3.8125 10.84375 -3.390625 12.6875 -3.390625 C 13.570312 -3.390625 14.414062 -3.53125 15.21875 -3.8125 C 16.03125 -4.101562 16.695312 -4.519531 17.21875 -5.0625 C 17.738281 -5.613281 18 -6.269531 18 -7.03125 C 18 -8.332031 17.445312 -9.347656 16.34375 -10.078125 C 15.238281 -10.804688 13.679688 -11.363281 11.671875 -11.75 C 9.117188 -12.269531 7.085938 -13.175781 5.578125 -14.46875 C 4.066406 -15.757812 3.3125 -17.625 3.3125 -20.0625 C 3.3125 -21.625 3.75 -22.976562 4.625 -24.125 C 5.5 -25.269531 6.648438 -26.15625 8.078125 -26.78125 C 9.515625 -27.40625 11.066406 -27.71875 12.734375 -27.71875 C 14.890625 -27.71875 16.75 -27.300781 18.3125 -26.46875 C 19.875 -25.632812 21.097656 -24.453125 21.984375 -22.921875 L 19.015625 -19.984375 C 18.316406 -21.160156 17.429688 -22.113281 16.359375 -22.84375 C 15.296875 -23.570312 14.046875 -23.9375 12.609375 -23.9375 C 11.179688 -23.9375 9.976562 -23.601562 9 -22.9375 C 8.019531 -22.269531 7.53125 -21.351562 7.53125 -20.1875 C 7.53125 -18.863281 8.046875 -17.894531 9.078125 -17.28125 C 10.109375 -16.664062 11.46875 -16.175781 13.15625 -15.8125 C 14.695312 -15.5 16.15625 -15.015625 17.53125 -14.359375 C 18.90625 -13.710938 20.03125 -12.875 20.90625 -11.84375 C 21.78125 -10.820312 22.21875 -9.582031 22.21875 -8.125 C 22.21875 -5.519531 21.332031 -3.445312 19.5625 -1.90625 C 17.789062 -0.375 15.359375 0.390625 12.265625 0.390625 C 10.148438 0.390625 8.226562 -0.0234375 6.5 -0.859375 C 4.769531 -1.691406 3.253906 -3.046875 1.953125 -4.921875 Z M 4.84375 -8.234375 "/></g></g></g><g fill="#ffffff" fill-opacity="1"><g transform="translate(85.264961, 40.234107)"><g><path d="M 6.25 8.984375 L 9.609375 1.28125 L 9.71875 1.015625 L 0.1875 -20.5 L 4.875 -20.5 L 11.28125 -5.421875 C 11.363281 -5.265625 11.441406 -5.066406 11.515625 -4.828125 C 11.597656 -4.597656 11.691406 -4.34375 11.796875 -4.0625 C 11.898438 -4.34375 11.992188 -4.617188 12.078125 -4.890625 C 12.171875 -5.171875 12.269531 -5.441406 12.375 -5.703125 L 17.734375 -20.5 L 22.484375 -20.5 L 14.0625 0 L 10.578125 8.984375 Z M 6.25 8.984375 "/></g></g></g><g fill="#ffffff" fill-opacity="1"><g transform="translate(107.944399, 40.234107)"><g><path d="M 13.546875 -20.921875 C 15.398438 -20.921875 16.832031 -20.546875 17.84375 -19.796875 C 18.863281 -19.046875 19.570312 -18.03125 19.96875 -16.75 C 20.375 -15.476562 20.578125 -14.0625 20.578125 -12.5 L 20.578125 0 L 16.5625 0 L 16.5625 -12.21875 C 16.5625 -13.207031 16.429688 -14.09375 16.171875 -14.875 C 15.910156 -15.65625 15.46875 -16.265625 14.84375 -16.703125 C 14.21875 -17.148438 13.34375 -17.335938 12.21875 -17.265625 C 11.175781 -17.265625 10.25 -17.039062 9.4375 -16.59375 C 8.632812 -16.15625 8 -15.570312 7.53125 -14.84375 C 7.0625 -14.113281 6.828125 -13.304688 6.828125 -12.421875 L 6.828125 0 L 2.8125 0 L 2.8125 -20.5 L 6.828125 -20.5 L 6.828125 -17.265625 C 7.453125 -18.222656 8.363281 -19.070312 9.5625 -19.8125 C 10.757812 -20.550781 12.085938 -20.921875 13.546875 -20.921875 Z M 13.546875 -20.921875 "/></g></g></g><g fill="#ffffff" fill-opacity="1"><g transform="translate(131.170334, 40.234107)"><g><path d="M 5.390625 -10.265625 C 5.390625 -8.910156 5.691406 -7.707031 6.296875 -6.65625 C 6.910156 -5.601562 7.71875 -4.769531 8.71875 -4.15625 C 9.726562 -3.539062 10.804688 -3.234375 11.953125 -3.234375 C 13.253906 -3.234375 14.382812 -3.570312 15.34375 -4.25 C 16.3125 -4.925781 17.09375 -5.628906 17.6875 -6.359375 L 19.90625 -3.625 C 19.414062 -2.925781 18.738281 -2.269531 17.875 -1.65625 C 17.019531 -1.039062 16.046875 -0.546875 14.953125 -0.171875 C 13.859375 0.203125 12.710938 0.390625 11.515625 0.390625 C 9.640625 0.390625 7.945312 -0.078125 6.4375 -1.015625 C 4.925781 -1.953125 3.734375 -3.226562 2.859375 -4.84375 C 1.992188 -6.457031 1.5625 -8.265625 1.5625 -10.265625 C 1.5625 -12.296875 1.992188 -14.113281 2.859375 -15.71875 C 3.734375 -17.320312 4.925781 -18.585938 6.4375 -19.515625 C 7.945312 -20.453125 9.640625 -20.921875 11.515625 -20.921875 C 13.421875 -20.921875 15.113281 -20.535156 16.59375 -19.765625 C 18.082031 -19.003906 19.1875 -18.015625 19.90625 -16.796875 L 17.6875 -14.0625 C 17.09375 -14.945312 16.238281 -15.707031 15.125 -16.34375 C 14.019531 -16.976562 12.945312 -17.296875 11.90625 -17.296875 C 10.6875 -17.296875 9.582031 -16.988281 8.59375 -16.375 C 7.601562 -15.769531 6.820312 -14.9375 6.25 -13.875 C 5.675781 -12.820312 5.390625 -11.617188 5.390625 -10.265625 Z M 5.390625 -10.265625 "/></g></g></g></g></g></svg>